:SAMPLES-PER-SECOND 30
:FULLY-SPECIFIED
:DEGREES
75
root  4.54591 38.0483 4.87092 -50.7972 -83.2701 46.9216
RightUpLeg  12.5069 -2.23008 -19.3415
RightLeg  18.8811 -1.26975 -0.609387
RightFoot  -17.2318 0.836001 18.705
RightToes  -8.73116e-010 0 -3.6325e-017
Spine  7.56789 0.349639 1.58347
Spine1  10.6475 2.05513 -7.24846
HEad  2.18708 -0.183165 -2.63849
LeftShoulder1  -0.486853 4.82406 -30.7102
LeftArm  -8.39173 11.8096 -41.2309
LeftForeArm  20.5126 -20.3609 -3.83143
LeftHand  -0.0569378 1.2226 1.38828
RightShoulder  -0.522117 -5.13169 25.2747
RightArm  6.60777 -4.27257 43.1499
RightForeArm  9.46164 21.9992 4.24079
RightHand  -0.232553 2.08647 -3.7823
LeftUpLeg  -17.6614 5.11661 -0.642887
LeftLeg  25.4132 0.435024 0.573526
LeftFoot  -3.36965 0.00949918 0.142262
LeftToes  -5.63919e-011 3.32596e-011 1.92487e-011
76
root  3.74995 38.0779 5.53863 -63.461 -83.3002 59.3638
RightUpLeg  8.95292 0.965981 -20.3697
RightLeg  27.0613 -3.30439 -2.0868
RightFoot  -13.244 0.288027 20.9692
RightToes  -8.73116e-010 0 -3.6325e-017
Spine  7.95071 0.605322 0.073903
Spine1  10.3932 2.13101 -7.89713
HEad  3.40948 0.230945 -3.00781
LeftShoulder1  -0.625476 5.17686 -31.2394
LeftArm  -8.53889 11.6154 -41.2107
LeftForeArm  21.1169 -17.7501 -4.13363
LeftHand  -0.0190242 2.49381 0.297267
RightShoulder  -0.50993 -5.08899 25.3521
RightArm  7.45439 -4.46722 44.034
RightForeArm  9.47512 21.3277 4.14751
RightHand  -0.265346 1.85795 -4.42139
LeftUpLeg  -16.1445 5.60594 -2.28289
LeftLeg  26.2501 1.29292 1.04429
LeftFoot  -5.54682 0.00465645 0.567213
LeftToes  -5.63919e-011 3.32596e-011 1.92487e-011
77
root  2.91461 38.2914 6.18789 -72.2247 -83.6793 68.0928
RightUpLeg  3.63962 3.11105 -20.2662
RightLeg  36.6441 -5.02808 -4.25362
RightFoot  -4.5956 -0.83187 14.7587
RightToes  -8.73116e-010 0 -3.6325e-017
Spine  7.8111 0.657449 -0.292863
Spine1  10.4043 2.19673 -8.0904
HEad  3.80907 0.218306 -2.87797
LeftShoulder1  -0.64793 5.22614 -31.4668
LeftArm  -9.5781 11.5547 -41.4517
LeftForeArm  22.0449 -15.2757 -4.42842
LeftHand  0.019589 2.1629 -1.13816
RightShoulder  -0.553755 -5.21077 25.6728
RightArm  8.24061 -4.54239 45.0042
RightForeArm  10.4755 21.1203 4.09278
RightHand  -0.213333 0.800023 -4.10978
LeftUpLeg  -13.9918 5.82663 -3.18902
LeftLeg  25.3981 2.26019 1.52236
LeftFoot  -6.83325 -0.00229016 1.09578
LeftToes  -5.63919e-011 3.32596e-011 1.92487e-011
78
root  2.11147 38.5036 6.73744 -76.5114 -84.1707 72.1536
RightUpLeg  -1.38729 4.36225 -19.1994
RightLeg  44.7229 -4.11074 -4.56303
RightFoot  1.9094 -0.907782 7.52593
RightToes  -8.73116e-010 0 -3.6325e-017
Spine  7.90038 0.522161 -0.956792
Spine1  10.5327 1.79575 -7.3882
HEad  3.56084 0.309911 -2.84986
LeftShoulder1  -0.554104 4.98339 -31.3012
LeftArm  -9.7971 11.9998 -41.8723
LeftForeArm  21.643 -13.6546 -4.75411
LeftHand  2.71384e-005 3.07509 -0.879823
RightShoulder  -0.543502 -5.17643 25.7144
RightArm  8.82001 -4.98959 46.2025
RightForeArm  10.5938 21.4025 4.13885
RightHand  -0.249184 1.67287 -4.25246
LeftUpLeg  -11.6856 6.30435 -3.51082
LeftLeg  24.2988 2.61411 1.64892
LeftFoot  -7.94471 0.00492454 1.44852
LeftToes  -5.63919e-011 3.32596e-011 1.92487e-011
79
root  1.33516 38.6455 7.17829 -79.7868 -84.3546 74.9216
RightUpLeg  -5.2262 5.13509 -18.0115
RightLeg  50.4151 -0.623071 -1.16437
RightFoot  -0.414406 -0.867214 9.01196
RightToes  -8.73116e-010 0 -3.6325e-017
Spine  8.30838 0.38463 -2.5606
Spine1  10.8469 1.08269 -6.17923
HEad  2.99895 1.06416 -3.09597
LeftShoulder1  -0.521191 4.89689 -31.2652
LeftArm  -9.51321 12.0839 -42.1037
LeftForeArm  22.8016 -12.3892 -5.15226
LeftHand  0.00190895 3.0192 -0.95326
RightShoulder  -0.545054 -5.18193 25.7003
RightArm  9.39464 -5.44407 47.293
RightForeArm  10.7071 22.2315 4.25017
RightHand  -0.279308 1.63247 -4.78164
LeftUpLeg  -9.16797 7.45524 -3.75198
LeftLeg  23.2639 2.00135 1.25609
LeftFoot  -9.09461 0.0199036 1.76531
LeftToes  -5.63919e-011 3.32596e-011 1.92487e-011
80
root  0.50554 38.7912 7.57029 -81.2078 -84.6938 76.0136
RightUpLeg  -8.97936 5.1043 -16.1383
RightLeg  54.2596 1.31387 1.5336
RightFoot  -1.59538 -0.785351 9.05577
RightToes  -8.73116e-010 0 -3.6325e-017
Spine  8.60636 0.209587 -3.81121
Spine1  10.7074 0.384041 -4.91393
HEad  2.80993 1.15578 -2.87434
LeftShoulder1  -0.55604 4.97097 -31.7541
LeftArm  -8.61031 11.7123 -41.4975
LeftForeArm  24.41 -11.2073 -5.73598
LeftHand  -0.00455247 3.65926 -1.34415
RightShoulder  -0.582514 -5.28569 25.9449
RightArm  10.8565 -6.13926 47.9107
RightForeArm  11.2562 23.0066 4.35091
RightHand  -0.219914 1.80926 -3.71114
LeftUpLeg  -6.66056 7.99544 -3.63247
LeftLeg  22.0101 1.82834 0.87523
LeftFoot  -10.1581 0.0411135 1.93269
LeftToes  -5.63919e-011 3.32596e-011 1.92487e-011
